<svg width="49" height="49" viewBox="0 0 49 49" fill="none" xmlns="http://www.w3.org/2000/svg">
<circle cx="24.5" cy="24.5" r="24.5" fill="#86BAE4"/>
<path fill-rule="evenodd" clip-rule="evenodd" d="M23.208 20.8059C22.2257 19.7861 20.9406 19.2742 19.6517 19.2742H19.6439C18.3589 19.2742 17.0738 19.7861 16.0915 20.8059C14.127 22.8454 14.127 26.1546 16.0915 28.1941C18.056 30.2337 21.2435 30.2337 23.208 28.1941C25.1725 26.1546 25.1725 22.8454 23.208 20.8059ZM21.7831 26.7149C20.6029 27.9402 18.6927 27.9402 17.5125 26.7149C16.3322 25.4895 16.3322 23.5065 17.5125 22.2811C18.6927 21.0558 20.6029 21.0558 21.7831 22.2811C22.9634 23.5065 22.9634 25.4895 21.7831 26.7149Z" fill="white"/>
<path fill-rule="evenodd" clip-rule="evenodd" d="M29.7842 19.2743C28.7903 19.2743 27.8702 19.6048 27.1209 20.161C26.6861 19.5484 25.6728 19.2783 25.1836 19.2783V29.7218L25.6922 29.6936C26.5424 29.6372 27.1597 29.0124 27.1947 28.1337L27.2219 27.6057V24.0466C27.2219 22.5795 28.371 21.3864 29.7842 21.3864C31.1974 21.3864 32.3466 22.5795 32.3466 24.0466V27.642L32.3699 28.1378C32.4048 29.0165 33.0221 29.6372 33.8724 29.6976L34.381 29.7259V24.0507C34.3849 21.4146 32.3194 19.2743 29.7842 19.2743Z" fill="white"/>
</svg>

