<svg width="49" height="49" viewBox="0 0 49 49" fill="none" xmlns="http://www.w3.org/2000/svg">
<circle cx="24.5" cy="24.5" r="24.5" fill="#7DC9C0"/>
<g clip-path="url(#clip0)">
<path fill-rule="evenodd" clip-rule="evenodd" d="M15.92 19.0891C15.6797 19.5608 15.6797 20.1782 15.6797 21.4131V27.5871C15.6797 28.822 15.6797 29.4395 15.92 29.9112C16.1314 30.3261 16.4687 30.6634 16.8836 30.8748C17.3553 31.1151 17.9728 31.1151 19.2077 31.1151H29.7917C31.0266 31.1151 31.6441 31.1151 32.1157 30.8748C32.5306 30.6634 32.868 30.3261 33.0794 29.9112C33.3197 29.4395 33.3197 28.822 33.3197 27.5871V21.4131C33.3197 20.1782 33.3197 19.5608 33.0794 19.0891C32.868 18.6742 32.5306 18.3369 32.1157 18.1255C31.6441 17.8851 31.0266 17.8851 29.7917 17.8851H19.2077C17.9728 17.8851 17.3553 17.8851 16.8836 18.1255C16.4687 18.3369 16.1314 18.6742 15.92 19.0891ZM26.7046 22.295C26.7046 23.5128 25.7174 24.5 24.4996 24.5C23.2819 24.5 22.2946 23.5128 22.2946 22.295C22.2946 21.0772 23.2819 20.09 24.4996 20.09C25.7174 20.09 26.7046 21.0772 26.7046 22.295ZM20.6409 27.8075C20.6409 26.5897 22.2946 25.6025 24.4996 25.6025C26.7046 25.6025 28.3584 26.5897 28.3584 27.8075C28.3584 28.4164 27.7887 28.91 27.2559 28.91H21.7434C21.2106 28.91 20.6409 28.4164 20.6409 27.8075Z" fill="white"/>
</g>
<defs>
<clipPath id="clip0">
<rect width="17.64" height="17.64" fill="white" transform="translate(15.6797 15.6801)"/>
</clipPath>
</defs>
</svg>

