<svg width="49" height="49" viewBox="0 0 49 49" fill="none" xmlns="http://www.w3.org/2000/svg">
<circle cx="24.5" cy="24.5" r="24.5" fill="#3F6D95"/>
<path fill-rule="evenodd" clip-rule="evenodd" d="M21.2331 17.1501H19.5999C18.9215 17.1501 18.3092 17.428 17.8682 17.869C17.4272 18.31 17.1494 18.9222 17.1494 19.5999C17.1494 26.37 22.6288 31.8501 29.3997 31.8501C29.4246 31.8501 29.4496 31.8501 29.4746 31.8501C30.7976 31.8421 31.8494 30.7234 31.8494 29.4004V27.7665C31.8494 26.8646 31.1181 26.1333 30.2162 26.1333H28.7815C28.131 26.1333 27.5085 26.3913 27.0491 26.8514L26.3876 27.5122C26.2296 27.6702 26.0165 27.7577 25.8018 27.7577C25.6879 27.7577 25.5732 27.7327 25.4674 27.6805C23.6608 26.8 22.1996 25.3395 21.3191 23.5329C21.1691 23.2257 21.2463 22.8537 21.4881 22.6119L22.1489 21.9512C22.6083 21.4918 22.8662 20.8685 22.8662 20.2188V18.7833C22.8662 17.8815 22.1349 17.1501 21.2331 17.1501Z" fill="white"/>
</svg>

