<svg width="49" height="49" viewBox="0 0 49 49" fill="none" xmlns="http://www.w3.org/2000/svg">
<circle cx="24.5" cy="24.5" r="24.5" fill="#86BAE4"/>
<path fill-rule="evenodd" clip-rule="evenodd" d="M25.4782 18.2464C25.3572 18.4839 25.3572 18.7948 25.3572 19.4167V21.376C25.3572 21.9978 25.3572 22.3088 25.4782 22.5463C25.5847 22.7552 25.7546 22.9251 25.9635 23.0316C26.201 23.1526 26.5119 23.1526 27.1338 23.1526H29.0931C29.715 23.1526 30.0259 23.1526 30.2634 23.0316C30.4724 22.9251 30.6422 22.7552 30.7487 22.5463C30.8697 22.3088 30.8697 21.9978 30.8697 21.376V19.4167C30.8697 18.7948 30.8697 18.4839 30.7487 18.2464C30.6422 18.0374 30.4724 17.8676 30.2634 17.7611C30.0259 17.6401 29.715 17.6401 29.0931 17.6401H27.1338C26.5119 17.6401 26.201 17.6401 25.9635 17.7611C25.7546 17.8676 25.5847 18.0374 25.4782 18.2464ZM17.7608 18.2465C17.6398 18.484 17.6398 18.7949 17.6398 19.4168V21.3761C17.6398 21.998 17.6398 22.3089 17.7608 22.5464C17.8672 22.7553 18.0371 22.9252 18.246 23.0317C18.4836 23.1527 18.7945 23.1527 19.4164 23.1527H21.3757C21.9975 23.1527 22.3085 23.1527 22.546 23.0317C22.7549 22.9252 22.9248 22.7553 23.0312 22.5464C23.1523 22.3089 23.1523 21.998 23.1523 21.3761V19.4168C23.1523 18.7949 23.1523 18.484 23.0312 18.2465C22.9248 18.0375 22.7549 17.8677 22.546 17.7612C22.3085 17.6402 21.9975 17.6402 21.3757 17.6402H19.4164C18.7945 17.6402 18.4836 17.6402 18.246 17.7612C18.0371 17.8677 17.8672 18.0375 17.7608 18.2465ZM25.3572 27.1342C25.3572 26.5124 25.3572 26.2014 25.4782 25.9639C25.5847 25.755 25.7546 25.5851 25.9635 25.4787C26.201 25.3576 26.5119 25.3576 27.1338 25.3576H29.0931C29.715 25.3576 30.0259 25.3576 30.2634 25.4787C30.4724 25.5851 30.6422 25.755 30.7487 25.9639C30.8697 26.2014 30.8697 26.5124 30.8697 27.1342V29.0935C30.8697 29.7154 30.8697 30.0263 30.7487 30.2639C30.6422 30.4728 30.4724 30.6427 30.2634 30.7491C30.0259 30.8701 29.715 30.8701 29.0931 30.8701H27.1338C26.5119 30.8701 26.201 30.8701 25.9635 30.7491C25.7546 30.6427 25.5847 30.4728 25.4782 30.2639C25.3572 30.0263 25.3572 29.7154 25.3572 29.0935V27.1342ZM17.7607 25.9639C17.6396 26.2014 17.6396 26.5124 17.6396 27.1342V29.0935C17.6396 29.7154 17.6396 30.0263 17.7607 30.2639C17.8671 30.4728 18.037 30.6427 18.2459 30.7491C18.4834 30.8701 18.7944 30.8701 19.4162 30.8701H21.3755C21.9974 30.8701 22.3084 30.8701 22.5459 30.7491C22.7548 30.6427 22.9247 30.4728 23.0311 30.2639C23.1521 30.0263 23.1521 29.7154 23.1521 29.0935V27.1342C23.1521 26.5124 23.1521 26.2014 23.0311 25.9639C22.9247 25.755 22.7548 25.5851 22.5459 25.4787C22.3084 25.3576 21.9974 25.3576 21.3755 25.3576H19.4162C18.7944 25.3576 18.4834 25.3576 18.2459 25.4787C18.037 25.5851 17.8671 25.755 17.7607 25.9639Z" fill="white"/>
</svg>

