<svg width="49" height="49" viewBox="0 0 49 49" fill="none" xmlns="http://www.w3.org/2000/svg">
<circle cx="24.5" cy="24.5" r="24.5" fill="#AED180"/>
<path fill-rule="evenodd" clip-rule="evenodd" d="M19.4664 17.1215C19.3254 17.3982 19.3254 17.7604 19.3254 18.4849V22.107C19.3254 22.8315 19.3254 23.1937 19.4664 23.4704C19.5904 23.7139 19.7883 23.9117 20.0317 24.0358C20.3084 24.1768 20.6707 24.1768 21.3951 24.1768H27.6044C28.3289 24.1768 28.6911 24.1768 28.9679 24.0358C29.2113 23.9117 29.4092 23.7139 29.5332 23.4704C29.6742 23.1937 29.6742 22.8315 29.6742 22.107V18.4849C29.6742 17.7604 29.6742 17.3982 29.5332 17.1215C29.4092 16.8781 29.2113 16.6802 28.9679 16.5562C28.6911 16.4152 28.3289 16.4152 27.6044 16.4152H21.3951C20.6707 16.4152 20.3084 16.4152 20.0317 16.5562C19.7883 16.6802 19.5904 16.8781 19.4664 17.1215ZM24.4998 20.6193C25.2142 20.6193 25.7934 20.0402 25.7934 19.3257C25.7934 18.6113 25.2142 18.0321 24.4998 18.0321C23.7853 18.0321 23.2062 18.6113 23.2062 19.3257C23.2062 20.0402 23.7853 20.6193 24.4998 20.6193ZM23.3679 22.8831H22.667C22.4288 22.8831 22.2294 22.6849 22.3074 22.4598C22.5392 21.7906 23.3241 21.2661 24.4998 21.2661C25.6754 21.2661 26.4604 21.7906 26.6921 22.4598C26.7701 22.6849 26.5707 22.8831 26.3326 22.8831H25.6317H23.3679ZM19.3253 27.7342C20.0397 27.7342 20.6189 27.155 20.6189 26.4406C20.6189 25.7262 20.0397 25.147 19.3253 25.147C18.6109 25.147 18.0317 25.7262 18.0317 26.4406C18.0317 27.155 18.6109 27.7342 19.3253 27.7342ZM25.7933 28.0576C25.7933 28.7721 25.2142 29.3512 24.4997 29.3512C23.7853 29.3512 23.2061 28.7721 23.2061 28.0576C23.2061 27.3432 23.7853 26.764 24.4997 26.764C25.2142 26.764 25.7933 27.3432 25.7933 28.0576ZM23.3679 32.5851C22.7427 32.5851 22.236 32.1218 22.236 31.5503C22.236 30.6929 23.0849 29.9979 24.4998 29.9979C25.9146 29.9979 26.7636 30.6929 26.7636 31.5503C26.7636 32.1218 26.2568 32.5851 25.6317 32.5851H23.3679ZM18.1934 30.9682C17.5683 30.9682 17.0615 30.5049 17.0615 29.9334C17.0615 29.076 17.9104 28.381 19.3253 28.381C20.7402 28.381 21.5891 29.076 21.5891 29.9334C21.5891 30.5049 21.0824 30.9682 20.4572 30.9682H18.1934ZM29.6742 27.7342C30.3886 27.7342 30.9678 27.155 30.9678 26.4406C30.9678 25.7262 30.3886 25.147 29.6742 25.147C28.9597 25.147 28.3806 25.7262 28.3806 26.4406C28.3806 27.155 28.9597 27.7342 29.6742 27.7342ZM28.5423 30.9682C27.9172 30.9682 27.4104 30.5049 27.4104 29.9334C27.4104 29.076 28.2593 28.381 29.6742 28.381C31.0891 28.381 31.938 29.076 31.938 29.9334C31.938 30.5049 31.4312 30.9682 30.8061 30.9682H28.5423Z" fill="white"/>
</svg>

