<svg width="49" height="49" viewBox="0 0 49 49" fill="none" xmlns="http://www.w3.org/2000/svg">
<circle cx="24.5" cy="24.5" r="24.5" fill="#46AEA2"/>
<g clip-path="url(#clip0)">
<path fill-rule="evenodd" clip-rule="evenodd" d="M15.8068 19.9918C15.6797 20.2412 15.6797 20.5677 15.6797 21.2207V24.3479C15.6797 26.058 15.6797 26.9131 16.0125 27.5663C16.3052 28.1408 16.7724 28.608 17.3469 28.9007C18.0001 29.2335 18.8551 29.2335 20.5652 29.2335H20.5653H26.5149C27.1679 29.2335 27.4944 29.2335 27.7438 29.1064C27.9632 28.9946 28.1416 28.8162 28.2534 28.5969C28.3805 28.3474 28.3805 28.0209 28.3805 27.3679V24.2407C28.3805 22.5306 28.3805 21.6755 28.0477 21.0223C27.7549 20.4478 27.2878 19.9807 26.7133 19.6879C26.0601 19.3551 25.205 19.3551 23.4949 19.3551H17.5453C16.8923 19.3551 16.5658 19.3551 16.3163 19.4822C16.0969 19.594 15.9186 19.7724 15.8068 19.9918ZM31.6671 28.5618L30.0361 27.2026L30.0359 27.2025C29.7702 26.9811 29.6374 26.8704 29.5306 26.7439C29.3163 26.4899 29.1729 26.1838 29.115 25.8565C29.0861 25.6935 29.0861 25.5205 29.0861 25.1746V25.1745V23.414V23.4139C29.0861 23.068 29.0861 22.895 29.115 22.732C29.1729 22.4047 29.3163 22.0986 29.5306 21.8446C29.6374 21.7181 29.7702 21.6074 30.0359 21.386L30.0361 21.3858L31.6671 20.0266L31.6673 20.0265C32.0669 19.6935 32.2668 19.5269 32.4278 19.4873C32.7572 19.4061 33.0986 19.566 33.2471 19.871C33.3197 20.0202 33.3197 20.2803 33.3197 20.8007V27.7878C33.3197 28.3082 33.3197 28.5683 33.2471 28.7175C33.0986 29.0225 32.7572 29.1824 32.4278 29.1012C32.2668 29.0616 32.067 28.895 31.6674 28.5621L31.6671 28.5618Z" fill="white"/>
</g>
<defs>
<clipPath id="clip0">
<rect width="17.64" height="17.64" fill="white" transform="translate(15.6797 15.6801)"/>
</clipPath>
</defs>
</svg>

